<svg width="98" height="92" viewBox="0 0 98 92" fill="none" xmlns="http://www.w3.org/2000/svg">
<path d="M37 89C39.2091 89 41 87.2091 41 85C41 82.7909 39.2091 81 37 81C34.7909 81 33 82.7909 33 85C33 87.2091 34.7909 89 37 89Z" stroke="white" stroke-width="5" stroke-linecap="round" stroke-linejoin="round"/>
<path d="M81 89C83.2091 89 85 87.2091 85 85C85 82.7909 83.2091 81 81 81C78.7909 81 77 82.7909 77 85C77 87.2091 78.7909 89 81 89Z" stroke="white" stroke-width="5" stroke-linecap="round" stroke-linejoin="round"/>
<path d="M5 5H21L31.72 58.56C32.0858 60.4016 33.0876 62.0558 34.5502 63.2332C36.0127 64.4105 37.8428 65.036 39.72 65H78.6C80.4772 65.036 82.3073 64.4105 83.7698 63.2332C85.2324 62.0558 86.2342 60.4016 86.6 58.56L93 25H25" stroke="white" stroke-width="10" stroke-linecap="round" stroke-linejoin="round"/>
</svg>
