<?xml version="1.0" standalone="no"?>
<!DOCTYPE svg PUBLIC "-//W3C//DTD SVG 20010904//EN"
 "http://www.w3.org/TR/2001/REC-SVG-20010904/DTD/svg10.dtd">
<svg version="1.0" xmlns="http://www.w3.org/2000/svg"
 width="700.000000pt" height="700.000000pt" viewBox="0 0 700.000000 700.000000"
 preserveAspectRatio="xMidYMid meet">
<metadata>
Created by potrace 1.14, written by Peter Selinger 2001-2017
</metadata>
<g transform="translate(0.000000,700.000000) scale(0.100000,-0.100000)"
fill="#000000" stroke="none">
<path d="M3362 5455 c-66 -18 -62 -16 -395 -207 -152 -87 -301 -169 -331 -182
-29 -13 -56 -29 -60 -34 -4 -6 -151 -93 -328 -194 -283 -161 -331 -191 -389
-250 -40 -40 -78 -89 -93 -122 -58 -122 -57 -101 -54 -987 l3 -814 22 -60 c13
-32 38 -82 57 -110 67 -101 115 -136 440 -321 171 -97 320 -185 331 -195 11
-10 40 -27 65 -38 25 -11 179 -96 343 -190 289 -165 323 -181 434 -215 69 -21
108 -20 200 5 96 26 95 26 438 222 154 88 296 167 315 175 19 8 45 23 58 33
14 10 164 99 336 196 349 200 414 250 475 372 61 119 61 120 61 966 0 843 0
834 -60 959 -29 62 -114 155 -180 199 -19 13 -156 92 -305 177 -148 84 -290
168 -315 185 -25 18 -55 36 -68 39 -12 4 -161 87 -330 183 -169 97 -332 185
-362 196 -72 27 -233 33 -308 12z m401 -432 c113 -65 203 -121 199 -124 -4 -4
-109 -66 -235 -139 l-228 -131 -217 125 c-119 69 -225 131 -235 138 -16 12 1
24 160 115 241 137 231 133 293 133 53 0 67 -6 263 -117z m-686 -529 l374
-216 57 4 c53 4 84 20 407 208 193 111 359 207 371 212 18 8 61 -13 262 -128
133 -76 240 -139 239 -140 -1 -1 -291 -169 -645 -373 l-643 -372 -557 322
c-306 177 -596 345 -644 373 -48 28 -85 52 -83 54 10 10 471 271 479 272 5 0
177 -97 383 -216z m-384 -718 l637 -368 0 -739 c0 -406 -2 -739 -4 -739 -2 0
-109 60 -237 134 l-234 133 -5 444 c-4 325 -8 450 -17 465 -23 40 -71 71 -432
280 l-361 208 0 279 c0 153 4 277 8 275 5 -1 295 -169 645 -372z m2267 97 l0
-278 -381 -220 c-261 -151 -388 -229 -403 -250 -21 -29 -21 -38 -24 -477 l-3
-447 -227 -130 c-125 -71 -235 -133 -245 -137 -16 -6 -17 37 -17 732 l1 739
642 372 c353 204 645 372 650 372 4 1 7 -124 7 -276z m-2675 -799 l235 -136 0
-275 c0 -151 -3 -272 -7 -270 -5 3 -93 53 -198 112 -209 119 -228 133 -256
187 -17 34 -19 61 -19 278 0 132 2 240 5 240 3 0 111 -61 240 -136z m2673
-113 l-3 -249 -30 -43 c-24 -33 -63 -61 -195 -136 -91 -52 -184 -106 -208
-119 l-42 -25 2 277 3 276 230 134 c127 73 234 133 238 134 4 0 7 -112 5 -249z"/>
</g>
</svg>
