<svg width="150" height="34" viewBox="0 0 150 34" fill="none" xmlns="http://www.w3.org/2000/svg">
<path d="M45.0653 12.1432V24.345H40.998V8.07599H55.2334L57.267 12.1432L52.183 17.2273L57.267 22.3113V28.4122L46.0821 17.2273L51.1662 12.1432H45.0653ZM63.3679 24.345L59.3006 20.2777V8.07599H63.3679V18.2441L65.4015 20.2777H71.5024V9.0928L75.5696 7.05918V24.345H63.3679ZM94.889 8.07599L92.8554 12.1432H87.7714V23.3282L83.7041 25.3618V12.1432H77.6032V8.07599H94.889ZM105.057 12.1432H95.9058V8.07599H115.225L103.024 20.2777H112.175V24.345H92.8554L105.057 12.1432ZM124.377 20.2777L126.41 18.2441V12.1432H120.309L118.276 14.1769V20.2777H124.377ZM130.477 20.2777L126.41 24.345H114.208V12.1432L118.276 8.07599H130.477V20.2777Z" fill="white"/>
<path d="M113.232 32.7051V26.3439H118.798L119.593 27.9342L118.003 29.5245L119.593 31.1148L118.798 32.7051H113.232ZM114.822 31.1148H117.208L115.617 29.5245L117.208 27.9342H114.822V31.1148ZM127.147 26.3439L126.352 27.9342H120.388V26.3439H127.147ZM127.147 31.1148L126.352 32.7051H120.388V31.1148H127.147ZM127.147 28.7293L126.352 30.3196H120.388V28.7293H127.147ZM134.304 26.3439L133.508 27.9342H131.52V32.3075L129.93 33.1027V27.9342H127.545V26.3439H134.304ZM136.291 27.9342V32.7051H134.701V26.3439H141.062V33.699L137.087 31.3136V29.5245L139.472 30.9557V27.9342H136.291Z" fill="white"/>
<path d="M10.1685 5.70776L16.2693 9.23271L22.3702 5.70776" stroke="white" stroke-width="2.44035" stroke-linecap="round" stroke-linejoin="round"/>
<path d="M10.1683 26.8303V19.794L4.06738 16.269" stroke="white" stroke-width="2.44035" stroke-linecap="round" stroke-linejoin="round"/>
<path d="M28.471 16.269L22.3701 19.794V26.8303" stroke="white" stroke-width="2.44035" stroke-linecap="round" stroke-linejoin="round"/>
<path d="M4.43311 9.43604L16.2688 16.2826L28.1045 9.43604" stroke="white" stroke-width="2.44035" stroke-linecap="round" stroke-linejoin="round"/>
<path d="M16.269 29.935V16.269" stroke="white" stroke-width="2.44035" stroke-linecap="round" stroke-linejoin="round"/>
<path d="M28.4709 21.6921V10.8461C28.4704 10.3706 28.3448 9.90356 28.1069 9.49189C27.8689 9.08022 27.5269 8.73837 27.1151 8.50062L17.6249 3.07763C17.2127 2.83964 16.7451 2.71436 16.2691 2.71436C15.7932 2.71436 15.3256 2.83964 14.9134 3.07763L5.42313 8.50062C5.01134 8.73837 4.66931 9.08022 4.43135 9.49189C4.19339 9.90356 4.06787 10.3706 4.06738 10.8461V21.6921C4.06787 22.1675 4.19339 22.6346 4.43135 23.0462C4.66931 23.4579 5.01134 23.7997 5.42313 24.0375L14.9134 29.4605C15.3256 29.6985 15.7932 29.8238 16.2691 29.8238C16.7451 29.8238 17.2127 29.6985 17.6249 29.4605L27.1151 24.0375C27.5269 23.7997 27.8689 23.4579 28.1069 23.0462C28.3448 22.6346 28.4704 22.1675 28.4709 21.6921Z" stroke="white" stroke-width="2.44035" stroke-linecap="round" stroke-linejoin="round"/>
</svg>
