<svg width="139" height="34" viewBox="0 0 139 34" fill="none" xmlns="http://www.w3.org/2000/svg">
<path d="M42.9062 11.2812V23H39V7.375H52.6719L54.625 11.2812L49.7422 16.1641L54.625 21.0469V26.9062L43.8828 16.1641L48.7656 11.2812H42.9062ZM60.4844 23L56.5781 19.0938V7.375H60.4844V17.1406L62.4375 19.0938H68.2969V8.35156L72.2031 6.39844V23H60.4844ZM90.7578 7.375L88.8047 11.2812H83.9219V22.0234L80.0156 23.9766V11.2812H74.1562V7.375H90.7578ZM100.523 11.2812H91.7344V7.375H110.289L98.5703 19.0938H107.359V23H88.8047L100.523 11.2812ZM119.078 19.0938L121.031 17.1406V11.2812H115.172L113.219 13.2344V19.0938H119.078ZM124.938 19.0938L121.031 23H109.312V11.2812L113.219 7.375H124.938V19.0938Z" fill="#3DDC84"/>
<path d="M29.6224 22.5692V11.2846C29.6219 10.7898 29.4913 10.3039 29.2437 9.87562C28.9961 9.4473 28.6402 9.09162 28.2118 8.84426L18.3377 3.20194C17.9089 2.95433 17.4224 2.82397 16.9271 2.82397C16.4319 2.82397 15.9454 2.95433 15.5166 3.20194L5.64251 8.84426C5.21407 9.09162 4.8582 9.4473 4.61062 9.87562C4.36304 10.3039 4.23244 10.7898 4.23193 11.2846V22.5692C4.23244 23.0639 4.36304 23.5498 4.61062 23.9781C4.8582 24.4064 5.21407 24.7621 5.64251 25.0095L15.5166 30.6518C15.9454 30.8994 16.4319 31.0298 16.9271 31.0298C17.4224 31.0298 17.9089 30.8994 18.3377 30.6518L28.2118 25.0095C28.6402 24.7621 28.9961 24.4064 29.2437 23.9781C29.4913 23.5498 29.6219 23.0639 29.6224 22.5692Z" stroke="#3DDC84" stroke-width="3" stroke-linecap="round" stroke-linejoin="round"/>
<path d="M10.5791 5.93848L16.9267 9.60598L23.2743 5.93848" stroke="#3DDC84" stroke-width="3" stroke-linecap="round" stroke-linejoin="round"/>
<path d="M10.5795 27.9154V20.5945L4.23193 16.927" stroke="#3DDC84" stroke-width="3" stroke-linecap="round" stroke-linejoin="round"/>
<path d="M29.622 16.927L23.2744 20.5945V27.9154" stroke="#3DDC84" stroke-width="3" stroke-linecap="round" stroke-linejoin="round"/>
<path d="M4.61279 9.81763L16.9271 16.9411L29.2415 9.81763" stroke="#3DDC84" stroke-width="3" stroke-linecap="round" stroke-linejoin="round"/>
<path d="M16.9268 31.1456V16.927" stroke="#3DDC84" stroke-width="3" stroke-linecap="round" stroke-linejoin="round"/>
</svg>
