<svg width="1080" height="224" viewBox="0 0 1080 224" fill="none" xmlns="http://www.w3.org/2000/svg">
<rect width="1080" height="224" rx="50" fill="#4915E7"/>
<path d="M350 79.875V133H337.5V111.125L325 123.625L312.5 111.125V129.875L300 136.125V79.875L325 104.875L350 79.875ZM368.75 95.5V133H356.25V83H406.25V140.812L375 122.062V108L393.75 119.25V95.5H368.75ZM425 95.5V133H412.5V83H456.25L462.5 95.5L446.875 111.125L462.5 126.75V145.5L428.125 111.125L443.75 95.5H425ZM500 104.875L518.75 123.625V142.375L490.625 114.25H481.25V133H468.75V83H481.25V101.75H484.375L503.125 83H521.875L500 104.875ZM537.5 95.5V101.75H575L568.75 114.25H537.5V120.5H578.125L571.875 133H525V83H578.125L571.875 95.5H537.5ZM634.375 83L628.125 95.5H612.5V129.875L600 136.125V95.5H581.25V83H634.375ZM650 95.5V133H637.5V83H681.25L687.5 95.5L665.625 117.375L653.125 111.125L668.75 95.5H650ZM703.125 120.5H737.5L731.25 133H690.625V79.875L703.125 86.125V120.5ZM753.125 95.5V133H740.625V83H790.625V140.812L759.375 122.062V108L778.125 119.25V95.5H753.125ZM809.375 133L796.875 120.5V83H850L843.75 95.5H809.375V114.25L815.625 120.5H846.875V133H809.375ZM865.625 95.5V101.75H903.125L896.875 114.25H865.625V120.5H906.25L900 133H853.125V83H906.25L900 95.5H865.625Z" fill="white"/>
<g clip-path="url(#clip0_471_264)">
<path d="M201 152C203.209 152 205 150.209 205 148C205 145.791 203.209 144 201 144C198.791 144 197 145.791 197 148C197 150.209 198.791 152 201 152Z" stroke="white" stroke-width="5" stroke-linecap="round" stroke-linejoin="round"/>
<path d="M245 152C247.209 152 249 150.209 249 148C249 145.791 247.209 144 245 144C242.791 144 241 145.791 241 148C241 150.209 242.791 152 245 152Z" stroke="white" stroke-width="5" stroke-linecap="round" stroke-linejoin="round"/>
<path d="M169 68H185L195.72 121.56C196.086 123.402 197.088 125.056 198.55 126.233C200.013 127.411 201.843 128.036 203.72 128H242.6C244.477 128.036 246.307 127.411 247.77 126.233C249.232 125.056 250.234 123.402 250.6 121.56L257 88H189" stroke="white" stroke-width="10" stroke-linecap="round" stroke-linejoin="round"/>
</g>
<defs>
<clipPath id="clip0_471_264">
<rect width="96" height="96" fill="white" transform="translate(165 64)"/>
</clipPath>
</defs>
</svg>
