<svg width="25" height="25" viewBox="0 0 965 965" fill="none" xmlns="http://www.w3.org/2000/svg">
<path d="M482.33 963.66C748.161 963.66 963.66 748.161 963.66 482.33C963.66 216.499 748.161 1 482.33 1C216.499 1 1 216.499 1 482.33C1 748.161 216.499 963.66 482.33 963.66Z" fill="black" stroke="white" stroke-miterlimit="10"/>
<path d="M482 275.471C549.266 275.471 557.233 275.728 583.8 276.94C608.362 278.061 621.7 282.164 630.578 285.614C641.52 289.652 651.418 296.092 659.544 304.459C667.911 312.585 674.351 322.483 678.389 333.425C681.839 342.302 685.943 355.641 687.063 380.203C688.275 406.768 688.532 414.735 688.532 482.003C688.532 549.271 688.275 557.236 687.063 583.803C685.942 608.365 681.838 621.703 678.389 630.581C674.198 641.446 667.779 651.313 659.544 659.547C651.31 667.782 641.443 674.201 630.578 678.392C621.701 681.842 608.362 685.946 583.8 687.066C557.24 688.278 549.273 688.535 482 688.535C414.727 688.535 406.763 688.278 380.2 687.066C355.638 685.945 342.3 681.841 333.422 678.392C322.48 674.353 312.582 667.914 304.456 659.547C296.089 651.421 289.65 641.523 285.611 630.581C282.161 621.704 278.057 608.365 276.937 583.803C275.725 557.239 275.468 549.271 275.468 482.003C275.468 414.735 275.725 406.77 276.937 380.203C278.058 355.641 282.161 342.303 285.611 333.425C289.65 322.482 296.09 312.584 304.458 304.458C312.584 296.091 322.482 289.652 333.424 285.613C342.301 282.163 355.64 278.059 380.202 276.939C406.767 275.727 414.734 275.47 482.002 275.47M482.002 230.079C413.584 230.079 405.002 230.369 378.136 231.595C351.321 232.819 333.009 237.077 316.985 243.305C300.176 249.631 284.948 259.547 272.365 272.362C259.547 284.945 249.628 300.172 243.3 316.982C237.077 333.007 232.819 351.319 231.6 378.134C230.369 405 230.079 413.582 230.079 482C230.079 550.418 230.369 559 231.6 585.866C232.824 612.681 237.082 630.993 243.31 647.017C249.636 663.826 259.552 679.054 272.367 691.637C284.95 704.452 300.178 714.368 316.987 720.694C333.012 726.922 351.324 731.18 378.138 732.404C405.008 733.63 413.587 733.92 482.004 733.92C550.421 733.92 559.004 733.63 585.87 732.404C612.685 731.18 630.997 726.922 647.021 720.694C663.756 714.222 678.954 704.325 691.641 691.637C704.329 678.95 714.226 663.752 720.698 647.017C726.926 630.992 731.184 612.68 732.408 585.866C733.634 558.996 733.924 550.417 733.924 482C733.924 413.583 733.634 405 732.408 378.134C731.184 351.319 726.926 333.007 720.698 316.983C714.373 300.174 704.456 284.946 691.641 272.363C679.058 259.545 663.829 249.627 647.018 243.3C630.993 237.077 612.681 232.819 585.866 231.6C559 230.369 550.418 230.079 482 230.079H482.002Z" fill="white"/>
<path d="M482 352.635C456.414 352.635 431.403 360.222 410.129 374.437C388.855 388.652 372.274 408.856 362.482 432.494C352.691 456.133 350.129 482.144 355.121 507.238C360.112 532.332 372.433 555.383 390.525 573.475C408.617 591.567 431.668 603.888 456.762 608.879C481.857 613.871 507.868 611.309 531.506 601.518C555.144 591.726 575.348 575.145 589.563 553.871C603.778 532.597 611.365 507.586 611.365 482C611.365 447.69 597.736 414.786 573.475 390.525C549.214 366.264 516.31 352.635 482 352.635ZM482 565.973C465.392 565.973 449.157 561.048 435.347 551.821C421.538 542.593 410.775 529.478 404.42 514.134C398.064 498.79 396.401 481.906 399.642 465.617C402.882 449.328 410.88 434.366 422.624 422.622C434.367 410.878 449.33 402.88 465.619 399.64C481.908 396.4 498.792 398.063 514.136 404.419C529.48 410.775 542.595 421.538 551.822 435.347C561.049 449.156 565.974 465.392 565.974 482C565.974 504.271 557.126 525.63 541.378 541.378C525.63 557.126 504.271 565.973 482 565.973Z" fill="white"/>
<path d="M616.476 377.754C633.172 377.754 646.706 364.22 646.706 347.524C646.706 330.828 633.172 317.294 616.476 317.294C599.781 317.294 586.246 330.828 586.246 347.524C586.246 364.22 599.781 377.754 616.476 377.754Z" fill="white"/>
</svg>
