<?xml version="1.0" encoding="utf-8"?>
<!-- Generator: Adobe Illustrator 27.1.0, SVG Export Plug-In . SVG Version: 6.00 Build 0)  -->
<svg version="1.1" id="Capa_1" xmlns="http://www.w3.org/2000/svg" xmlns:xlink="http://www.w3.org/1999/xlink" x="0px" y="0px"
	 viewBox="0 0 512 512" style="enable-background:new 0 0 512 512;" xml:space="preserve">
<style type="text/css">
	.st0{fill:#FFFFFF;}
</style>
<g>
	<rect x="0.5" y="1.5" class="st0" width="511" height="509.01"/>
	<path d="M511,2V510H1V2H511 M512,1H0V511h512V1L512,1z"/>
</g>
<g>
	<path d="M153.44,481.53c-17.06,0-32.95-9.18-41.48-23.95L9.4,279.95c-8.53-14.77-8.53-33.12,0-47.89L111.96,54.41
		c8.53-14.77,24.42-23.95,41.48-23.95h205.12c17.06,0,32.95,9.18,41.48,23.95L502.6,232.05c8.53,14.77,8.53,33.12,0,47.89
		L400.04,457.59c-8.53,14.77-24.42,23.95-41.48,23.95H153.44z"/>
	<path d="M358.56,30.97c16.88,0,32.6,9.08,41.04,23.7L502.16,232.3c8.44,14.62,8.44,32.78,0,47.39L399.6,457.34
		c-8.44,14.62-24.17,23.7-41.04,23.7H153.44c-16.88,0-32.6-9.08-41.04-23.7L9.84,279.7c-8.44-14.62-8.44-32.78,0-47.39L112.4,54.66
		c8.44-14.62,24.17-23.7,41.04-23.7H358.56 M358.56,29.97H153.44c-17.29,0-33.26,9.22-41.91,24.2L8.97,231.8
		c-8.64,14.97-8.64,33.42,0,48.39l102.56,177.64c8.64,14.97,24.62,24.2,41.91,24.2h205.12c17.29,0,33.26-9.22,41.91-24.2
		L503.03,280.2c8.64-14.97,8.64-33.42,0-48.39L400.47,54.16C391.83,39.19,375.85,29.97,358.56,29.97L358.56,29.97z"/>
</g>
</svg>
